<svg width="64" height="64" xmlns="http://www.w3.org/2000/svg">
 <!-- Created with Method Draw - http://github.com/duopixel/Method-Draw/ -->
 <g>
  <title>background</title>
  <rect fill="none" id="canvas_background" height="66" width="66" y="-1" x="-1"/>
  <g display="none" overflow="visible" y="0" x="0" height="100%" width="100%" id="canvasGrid">
   <rect fill="url(#gridpattern)" stroke-width="0" y="0" x="0" height="100%" width="100%"/>
  </g>
 </g>
 <g>
  <title>Layer 1</title>
  <path stroke="#ff7f00" id="svg_3" d="m48.870651,8.29784c-4.049397,-3.934522 -8.416895,-7.08632 -11.99959,-7.516005c-0.19504,-0.027871 -0.397045,-0.04413 -0.61066,-0.048775l-23.578916,0c-0.376148,0 -0.747652,0.146325 -1.012349,0.418072c-0.262375,0.264779 -0.417942,0.636398 -0.417942,1.014986l0,59.807517c0,0.376265 0.14628,0.736271 0.417942,1.010341c0.271663,0.269424 0.629235,0.415749 1.012349,0.415749l42.639411,0c0.376148,0 0.736043,-0.144003 1.007706,-0.415749c0.271663,-0.271747 0.422586,-0.631753 0.422586,-1.010341l0,-39.798129c-0.083588,-4.619695 -3.701112,-9.657462 -7.880536,-13.877667zm-2.013089,2.025326c1.869131,1.825581 3.550188,3.892715 4.804016,5.885524c-1.08665,-0.429685 -2.226704,-0.747884 -3.297101,-1.00105c-2.356731,-0.529558 -4.662379,-0.743239 -6.094993,-0.829176c0.006966,-0.308909 0.009288,-0.657302 0.009288,-1.035889c0,-2.018359 -0.127705,-4.896087 -0.826597,-7.432391c-0.006966,-0.023226 -0.01161,-0.046452 -0.020897,-0.069679c1.773933,1.170602 3.705756,2.724436 5.426285,4.482661zm7.028398,50.212766l-39.778827,0l0,-56.946047l22.15559,0l0,0.004645c0.965911,-0.058066 1.799474,0.896532 2.437997,3.079797c0.580476,2.078747 0.726755,4.789247 0.724433,6.668248c0.004644,1.377315 -0.062691,2.301718 -0.062691,2.301718l-0.113773,1.51435l1.523168,0.016258c0.006966,0 3.520004,0.041807 6.965706,0.824531c3.311032,0.715368 5.899953,2.141458 6.141431,3.75568c0.009288,0.144003 0.01161,0.288005 0.009288,0.422717l0,38.358103l-0.002322,0z" fill-opacity="null" stroke-width="1.5" fill="#fff"/>
  <path stroke="#ff7f00" id="svg_4" d="m45.135478,21.08875c-2.293652,-1.862403 -5.486809,-1.264789 -7.131005,1.338081l-12.895452,20.422048c-1.173849,1.8574 -0.797332,4.445046 0.842425,5.776767c1.639752,1.329235 3.918897,0.902133 5.092746,-0.957716l9.105205,-14.417898l-1.186924,-0.965329l-9.103818,14.419137l0,0c-0.705139,1.113174 -2.073353,1.370912 -3.05449,0.574939c-0.982494,-0.797299 -1.207522,-2.350115 -0.503779,-3.465824l0,0l12.893782,-20.420807l0.001661,-0.001296l-0.002774,-0.001239c1.17246,-1.853562 3.458839,-2.281885 5.09413,-0.953949c1.635299,1.329195 2.013507,3.923209 0.842704,5.778006l0,-0.001233l-14.133899,22.383018l0.001387,0.002542c-1.641117,2.597787 -4.841539,3.197949 -7.132392,1.338077c-2.29083,-1.863698 -2.81802,-5.489974 -1.178288,-8.090305l10.27181,-16.266373l-1.187199,-0.964026l-10.271509,16.266376c-2.112912,3.345803 -1.433952,7.99926 1.516934,10.394884c2.950871,2.398153 7.053572,1.627418 9.166484,-1.71709l14.133577,-22.38433c1.639774,-2.601566 1.113976,-6.221527 -1.181319,-8.08646l0,0.000001z" fill-opacity="null" fill="#fff"/>
 </g>
</svg>